<svg id="Calque_1" data-name="Calque 1" xmlns="http://www.w3.org/2000/svg" viewBox="0 0 510.78 237.35"><defs><style>.cls-1{fill:#2d387b;}.cls-2{fill:#289dd8;}.cls-3{fill:none;stroke:#289dd8;stroke-miterlimit:10;stroke-width:15.07px;}.cls-4{fill:#4c4c4c;}</style></defs><title>elassandra</title><rect class="cls-1" x="232.31" y="74.04" width="128.07" height="28.46" rx="14.23" ry="14.23"/><rect class="cls-1" x="232.31" width="128.07" height="28.46" rx="14.23" ry="14.23"/><rect class="cls-1" x="232.31" y="36.64" width="128.07" height="28.46" rx="14.23" ry="14.23"/><path class="cls-2" d="M191.83,383.48h64.3a.71.71,0,0,1,.71.71v29.67a.76.76,0,0,1-.76.76H192a2.25,2.25,0,0,1-2.25-2.25V385.6a2.12,2.12,0,0,1,2.12-2.12Z" transform="translate(-262.06 -22.15) rotate(-42.5)"/><circle class="cls-3" cx="230.49" cy="71.74" r="49.18"/><path class="cls-4" d="M89.28,512.19l.19,1.73q-9.37.38-28.17.38a9.5,9.5,0,0,1-9.77-9.77V458a9.5,9.5,0,0,1,9.77-9.77q18.8,0,28.17.38l-.19,1.73H61.79a7.54,7.54,0,0,0-7.86,7.85v19.74H85.35v2H53.93v24.43a7.54,7.54,0,0,0,7.86,7.86Z" transform="translate(-51.13 -277.81)"/><path class="cls-4" d="M61.3,514.7a9.91,9.91,0,0,1-10.17-10.17V458A9.91,9.91,0,0,1,61.3,447.79c12.43,0,21.92.13,28.19.38l.42,0-.27,2.5H61.79a7.14,7.14,0,0,0-7.46,7.46v19.34H85.75v2.81H54.33v24a7.13,7.13,0,0,0,7.46,7.46H89.64l.27,2.5-.42,0C83.22,514.57,73.73,514.7,61.3,514.7Zm0-66.11A9.1,9.1,0,0,0,51.93,458v46.57a9.1,9.1,0,0,0,9.37,9.37c12.14,0,21.46-.12,27.73-.36l-.11-.95H61.79a7.94,7.94,0,0,1-8.26-8.26V479.5H85v-1.21H53.53V458.15a7.94,7.94,0,0,1,8.26-8.25H88.92L89,449C82.76,448.71,73.44,448.59,61.3,448.59Z" transform="translate(-51.13 -277.81)"/><path class="cls-4" d="M112.76,514.3V444.36h3.35V514.3Z" transform="translate(-51.13 -277.81)"/><path class="cls-4" d="M173.21,480.48v27.59c.26,2.3,2.65,3.64,7.19,4l-.19,3q-7,0-9.87-4A49.51,49.51,0,0,1,151,515.16q-5.94,0-9.24-3.54t-3.31-10.11q0-6.57,3.16-10t10.06-4.12l18.21-1.92v-5q0-6.14-2.64-8.91c-1.76-1.85-4.42-2.78-8-2.78A126.06,126.06,0,0,0,144.09,470l-3,.39-.29-3.16a118.51,118.51,0,0,1,18.39-1.73Q173.22,465.53,173.21,480.48Zm-28.93,13q-2.31,2.58-2.31,7.76c0,3.45.79,6.11,2.35,8a8.09,8.09,0,0,0,6.57,2.82,42.67,42.67,0,0,0,8.91-1,59.74,59.74,0,0,0,7.37-2l2.69-1V488.53L152,490.35Q146.58,490.92,144.28,493.51Z" transform="translate(-51.13 -277.81)"/><path class="cls-4" d="M212.11,468.6q-12.84,0-12.84,9.58c0,3,.9,5.12,2.68,6.37s5.75,2.35,11.88,3.3,10.42,2.24,12.84,3.84,3.64,4.8,3.64,9.63-1.53,8.33-4.59,10.54-7.61,3.3-13.61,3.3a97.47,97.47,0,0,1-13-1.15l-2.78-.38.38-3.16a111.07,111.07,0,0,0,16.48,1.62q6.14,0,9.87-2.39c2.49-1.6,3.74-4.31,3.74-8.15s-1-6.35-2.92-7.56-5.95-2.29-12-3.21-10.24-2.18-12.6-3.74-3.55-4.2-3.55-7.9.87-6.57,2.59-8.58a12.52,12.52,0,0,1,6-4,25.53,25.53,0,0,1,7.18-1,95.63,95.63,0,0,1,14.57,1.05l2.49.39-.19,3.16A108.91,108.91,0,0,0,212.11,468.6Z" transform="translate(-51.13 -277.81)"/><path class="cls-4" d="M265.86,468.6q-12.85,0-12.84,9.58,0,4.5,2.68,6.37c1.79,1.24,5.75,2.35,11.88,3.3s10.41,2.24,12.84,3.84,3.64,4.8,3.64,9.63-1.53,8.33-4.6,10.54-7.6,3.3-13.6,3.3a97.47,97.47,0,0,1-13-1.15l-2.78-.38.38-3.16a111.07,111.07,0,0,0,16.48,1.62q6.13,0,9.87-2.39c2.49-1.6,3.74-4.31,3.74-8.15s-1-6.35-2.92-7.56-6-2.29-12-3.21S255.38,488.6,253,487s-3.55-4.2-3.55-7.9.87-6.57,2.59-8.58a12.52,12.52,0,0,1,6-4,25.53,25.53,0,0,1,7.18-1,95.63,95.63,0,0,1,14.57,1.05l2.49.39-.19,3.16A108.91,108.91,0,0,0,265.86,468.6Z" transform="translate(-51.13 -277.81)"/><path class="cls-4" d="M337.72,480.48v27.59c.26,2.3,2.65,3.64,7.19,4l-.19,3q-7,0-9.88-4a49.43,49.43,0,0,1-19.35,4.12q-5.94,0-9.24-3.54t-3.31-10.11q0-6.57,3.16-10t10.06-4.12l18.21-1.92v-5q0-6.14-2.64-8.91c-1.76-1.85-4.42-2.78-8-2.78A126.06,126.06,0,0,0,308.6,470l-3,.39-.28-3.16a118.51,118.51,0,0,1,18.39-1.73Q337.73,465.53,337.72,480.48Zm-28.93,13q-2.31,2.58-2.31,7.76c0,3.45.79,6.11,2.35,8a8.09,8.09,0,0,0,6.57,2.82,42.67,42.67,0,0,0,8.91-1,59.74,59.74,0,0,0,7.37-2l2.69-1V488.53l-17.82,1.82Q311.09,490.92,308.79,493.51Z" transform="translate(-51.13 -277.81)"/><path class="cls-4" d="M366.27,514.3h-3.36V466.39h3.36v3.83a35.85,35.85,0,0,1,17.44-4.69q8.91,0,12,4.84t3.06,19V514.3H395.4V489.58q0-12.65-2.3-16.81T383,468.6a29.21,29.21,0,0,0-8,1.19,41,41,0,0,0-6.47,2.35l-2.3,1.25Z" transform="translate(-51.13 -277.81)"/><path class="cls-4" d="M457.19,444.36V514.3h-3.36v-4a31.11,31.11,0,0,1-7.75,3.35,29.07,29.07,0,0,1-8.1,1.53,36,36,0,0,1-4.79-.24,13.83,13.83,0,0,1-4.17-1.53A10.68,10.68,0,0,1,425,509.7a24.15,24.15,0,0,1-2.78-7.19,47.39,47.39,0,0,1-1.19-11.4q0-13,4.45-19.3t15.76-6.28a80.64,80.64,0,0,1,12.64,1.15V444.36ZM432.9,511.47a15.88,15.88,0,0,0,4.93.62,25.82,25.82,0,0,0,7.24-1.24,35.49,35.49,0,0,0,6.47-2.49l2.29-1.25V469.75a84.84,84.84,0,0,0-12.64-1.15q-9.68,0-13.17,5.46t-3.5,17.05q0,13.8,4.41,17.82A11.38,11.38,0,0,0,432.9,511.47Z" transform="translate(-51.13 -277.81)"/><path class="cls-4" d="M481.91,514.3V466.39h3.35v7.48a52.67,52.67,0,0,1,19-8.43v3.44a48.15,48.15,0,0,0-9,2.88A53.16,53.16,0,0,0,488,475.4L485.26,477V514.3Z" transform="translate(-51.13 -277.81)"/><path class="cls-4" d="M554.73,480.48v27.59q.38,3.45,7.18,4l-.19,3q-7,0-9.87-4a49.46,49.46,0,0,1-19.35,4.12q-5.94,0-9.25-3.54t-3.31-10.11q0-6.57,3.17-10t10.06-4.12l18.2-1.92v-5q0-6.14-2.63-8.91t-8-2.78A126.2,126.2,0,0,0,525.6,470l-3,.39-.29-3.16a118.62,118.62,0,0,1,18.4-1.73Q554.72,465.53,554.73,480.48Zm-28.94,13q-2.29,2.58-2.3,7.76c0,3.45.78,6.11,2.35,8a8.06,8.06,0,0,0,6.56,2.82,42.6,42.6,0,0,0,8.91-1,60.48,60.48,0,0,0,7.38-2l2.68-1V488.53l-17.82,1.82C529.91,490.73,527.33,491.78,525.79,493.51Z" transform="translate(-51.13 -277.81)"/></svg>